<svg width="1280" height="720" xmlns="http://www.w3.org/2000/svg" xmlns:xlink="http://www.w3.org/1999/xlink" overflow="hidden"><g><rect x="0" y="0" width="1280" height="720" fill="#FFFFFF"/><rect x="698" y="195" width="455" height="346" fill="#00B0F0" fill-opacity="0.2"/><rect x="90" y="397" width="608" height="313" fill="#E97132" fill-opacity="0.2"/><rect x="89" y="13" width="608" height="384" fill="#FFFF00" fill-opacity="0.2"/><rect x="264" y="209" width="174" height="56" stroke="#4EA72E" stroke-width="4" stroke-miterlimit="8" fill="#FFFFFF"/><text font-family="Aptos,Aptos_MSFontService,sans-serif" font-weight="400" font-size="16" transform="translate(290.396 242)">Fit_PLS1(X1_S,y1)</text><rect x="264" y="95" width="174" height="56" stroke="#4EA72E" stroke-width="2" stroke-miterlimit="8" fill="#FFFFFF"/><text font-family="Aptos,Aptos_MSFontService,sans-serif" font-weight="400" font-size="16" transform="translate(299.416 129)">Standardize X</text><text font-family="Aptos,Aptos_MSFontService,sans-serif" font-weight="400" font-size="16" transform="translate(393.73 129)">1</text><rect x="264" y="325" width="174" height="56" stroke="#4EA72E" stroke-width="2" stroke-miterlimit="8" fill="#FFFFFF"/><text font-family="Aptos,Aptos_MSFontService,sans-serif" font-weight="400" font-size="16" transform="translate(273.896 349)">Rearrange_Scores_Ma</text><text font-family="Aptos,Aptos_MSFontService,sans-serif" font-weight="400" font-size="16" transform="translate(340.156 368)">trix</text><path d="M352 151 352 202.379 350 202.379 350 151ZM355 201.045 351 209.045 347 201.045Z" fill="#156082"/><path d="M352 265 352 318.857 350 318.857 350 265ZM355 317.524 351 325.524 347 317.524Z" fill="#156082"/><path d="M352 387 352 429.244 350 429.244 350 387ZM355 427.91 351 435.91 347 427.91Z" fill="#156082"/><path d="M352 52 352 88.643 350 88.6431 350 52ZM355 87.3097 351 95.3097 347 87.3097Z" fill="#156082"/><path d="M180 236 257.451 236 257.451 238 180 238ZM256.117 233 264.117 237 256.117 241Z" fill="#156082"/><text font-family="Aptos,Aptos_MSFontService,sans-serif" font-weight="400" font-size="16" transform="translate(291.205 44)">X1 (Observations)</text><text font-family="Aptos,Aptos_MSFontService,sans-serif" font-weight="400" font-size="16" transform="translate(154.297 239)">y</text><text font-family="Aptos,Aptos_MSFontService,sans-serif" font-weight="400" font-size="16" transform="translate(161.464 239)">1</text><text font-family="Aptos,Aptos_MSFontService,sans-serif" font-weight="400" font-size="16" transform="translate(101.87 258)">(Time or Maturity)</text><text font-family="Aptos,Aptos_MSFontService,sans-serif" font-weight="400" font-size="16" transform="translate(361.576 189)">X1_S</text><text font-family="Aptos,Aptos_MSFontService,sans-serif" font-weight="400" font-size="16" transform="translate(360.436 303)">T (Scores)</text><text font-family="Aptos,Aptos_MSFontService,sans-serif" font-weight="400" font-size="16" transform="translate(455.589 236)">P</text><text font-family="Aptos,Aptos_MSFontService,sans-serif" font-weight="400" font-size="16" transform="translate(468.089 236)">(loadings)</text><text font-family="Aptos,Aptos_MSFontService,sans-serif" font-weight="400" font-size="16" transform="translate(449.643 255)">W’ (rotations)</text><text font-family="Aptos,Aptos_MSFontService,sans-serif" font-weight="400" font-size="16" transform="translate(362.242 417)">X1_T</text><path d="M180 471 257.451 471 257.451 473 180 473ZM256.117 468 264.117 472 256.117 476Z" fill="#156082"/><text font-family="Aptos,Aptos_MSFontService,sans-serif" font-weight="400" font-size="16" transform="translate(156.863 477)">Z</text><text font-family="Aptos,Aptos_MSFontService,sans-serif" font-weight="400" font-size="16" transform="translate(100.47 496)">(Batch</text><text font-family="Aptos,Aptos_MSFontService,sans-serif" font-weight="400" font-size="16" transform="translate(145.416 496)">-</text><text font-family="Aptos,Aptos_MSFontService,sans-serif" font-weight="400" font-size="16" transform="translate(150.916 496)">Level</text><text font-family="Aptos,Aptos_MSFontService,sans-serif" font-weight="400" font-size="16" transform="translate(190.456 496)">I</text><text font-family="Aptos,Aptos_MSFontService,sans-serif" font-weight="400" font-size="16" transform="translate(194.623 496)">nfo)</text><rect x="264" y="443" width="174" height="55" stroke="#4EA72E" stroke-width="2" stroke-miterlimit="8" fill="#FFFFFF"/><text font-family="Aptos,Aptos_MSFontService,sans-serif" font-weight="400" font-size="16" transform="translate(275.44 466)">M</text><text font-family="Aptos,Aptos_MSFontService,sans-serif" font-weight="400" font-size="16" transform="translate(288.106 466)">erge_Time_Series_</text><text font-family="Aptos,Aptos_MSFontService,sans-serif" font-weight="400" font-size="16" transform="translate(416.54 466)">B</text><text font-family="Aptos,Aptos_MSFontService,sans-serif" font-weight="400" font-size="16" transform="translate(335.52 485)">atch</text><path d="M352 498 352 537.769 350 537.769 350 498ZM355 536.435 351 544.435 347 536.435Z" fill="#156082"/><text font-family="Aptos,Aptos_MSFontService,sans-serif" font-weight="400" font-size="16" transform="translate(361.614 534)">X2</text><path d="M180 571 257.451 571 257.451 573 180 573ZM256.117 568 264.117 572 256.117 576Z" fill="#156082"/><text font-family="Aptos,Aptos_MSFontService,sans-serif" font-weight="400" font-size="16" transform="translate(153.55 574)">Y2</text><text font-family="Aptos,Aptos_MSFontService,sans-serif" font-weight="400" font-size="16" transform="translate(114.337 593)">(Final</text><text font-family="Aptos,Aptos_MSFontService,sans-serif" font-weight="400" font-size="16" transform="translate(155.764 593)">Quality</text><text font-family="Aptos,Aptos_MSFontService,sans-serif" font-weight="400" font-size="16" transform="translate(205.264 593)">)</text><path d="M438 352 739.194 352 739.194 354 438 354ZM737.86 349 745.86 353 737.86 357Z" fill="#156082"/><text font-family="Aptos,Aptos_MSFontService,sans-serif" font-weight="700" font-size="16" transform="translate(99.4512 36)">Level 1: BEM (Evolution)</text><text font-family="Aptos,Aptos_MSFontService,sans-serif" font-weight="700" font-size="16" transform="translate(97.8652 420)">Level 3: BLM (Prediction)</text><text font-family="Aptos,Aptos_MSFontService,sans-serif" font-weight="400" font-size="16" transform="translate(484.725 348)">X1_T</text><text font-family="Aptos,Aptos_MSFontService,sans-serif" font-weight="400" font-size="16" transform="translate(469.711 132)">scaler</text><rect x="264.5" y="644.5" width="174" height="56" stroke="#4EA72E" stroke-width="5.33333" stroke-miterlimit="8" fill="#FFFFFF"/><text font-family="Aptos,Aptos_MSFontService,sans-serif" font-weight="400" font-size="16" transform="translate(288.146 677)">Fit_PLS2(X2_S, y2)</text><rect x="264" y="545" width="174" height="55" stroke="#4EA72E" stroke-width="2" stroke-miterlimit="8" fill="#FFFFFF"/><text font-family="Aptos,Aptos_MSFontService,sans-serif" font-weight="400" font-size="16" transform="translate(299.416 578)">Standardize X2</text><path d="M352 600 352 637.429 350 637.429 350 600ZM355 636.095 351 644.095 347 636.095Z" fill="#156082"/><text font-family="Aptos,Aptos_MSFontService,sans-serif" font-weight="400" font-size="16" transform="translate(361.576 626)">X2_S</text><text font-family="Aptos,Aptos_MSFontService,sans-serif" font-weight="400" font-size="16" transform="translate(753.366 354)">Means</text><text font-family="Aptos,Aptos_MSFontService,sans-serif" font-weight="400" font-size="16" transform="translate(752.533 373)">+/</text><text font-family="Aptos,Aptos_MSFontService,sans-serif" font-weight="400" font-size="16" transform="translate(766.533 373)">-</text><text font-family="Aptos,Aptos_MSFontService,sans-serif" font-weight="400" font-size="16" transform="translate(772.033 373)">3SD</text><text font-family="Aptos,Aptos_MSFontService,sans-serif" font-weight="700" font-size="37" transform="translate(883.767 83)">Training</text><text font-family="Aptos,Aptos_MSFontService,sans-serif" font-weight="700" font-size="37" transform="translate(869.287 128)">Workflow</text><rect x="746" y="325" width="174" height="56" stroke="#4EA72E" stroke-width="2" stroke-miterlimit="8" fill="#FFFFFF"/><text font-family="Aptos,Aptos_MSFontService,sans-serif" font-weight="400" font-size="16" transform="translate(763.618 358)">Calculate_Statistics</text><rect x="746" y="430" width="175" height="55" stroke="#4EA72E" stroke-width="2" stroke-miterlimit="8" fill="#FFFFFF"/><text font-family="Aptos,Aptos_MSFontService,sans-serif" font-weight="400" font-size="16" transform="translate(792.516 463)">Plot_Scores</text><path d="M834 380.987 834.542 423.234 832.542 423.26 832 381.013ZM837.525 421.862 833.628 429.913 829.525 421.965Z" fill="#156082"/><text font-family="Aptos,Aptos_MSFontService,sans-serif" font-weight="700" font-size="16" transform="translate(748.561 217)">Level 2: Monitoring Traces</text><text font-family="Aptos,Aptos_MSFontService,sans-serif" font-weight="400" font-size="16" transform="translate(936.062 354)">Means</text><text font-family="Aptos,Aptos_MSFontService,sans-serif" font-weight="400" font-size="16" transform="translate(935.229 373)">+/</text><text font-family="Aptos,Aptos_MSFontService,sans-serif" font-weight="400" font-size="16" transform="translate(949.229 373)">-</text><text font-family="Aptos,Aptos_MSFontService,sans-serif" font-weight="400" font-size="16" transform="translate(954.729 373)">3SD</text></g></svg>